<?xml version="1.0" encoding="UTF-8" standalone="no"?>
<svg
   xmlns:dc="http://purl.org/dc/elements/1.1/"
   xmlns:cc="http://creativecommons.org/ns#"
   xmlns:rdf="http://www.w3.org/1999/02/22-rdf-syntax-ns#"
   xmlns:svg="http://www.w3.org/2000/svg"
   xmlns="http://www.w3.org/2000/svg"
   xmlns:sodipodi="http://sodipodi.sourceforge.net/DTD/sodipodi-0.dtd"
   xmlns:inkscape="http://www.inkscape.org/namespaces/inkscape"
   width="20"
   height="20"
   viewBox="0 0 20 20"
   fill="none"
   version="1.1"
   id="svg851"
   sodipodi:docname="checkbox-enabled-unchecked.svg"
   inkscape:version="1.0 (4035a4fb49, 2020-05-01)">
  <metadata
     id="metadata857">
    <rdf:RDF>
      <cc:Work
         rdf:about="">
        <dc:format>image/svg+xml</dc:format>
        <dc:type
           rdf:resource="http://purl.org/dc/dcmitype/StillImage" />
      </cc:Work>
    </rdf:RDF>
  </metadata>
  <defs
     id="defs855" />
  <sodipodi:namedview
     inkscape:document-rotation="0"
     pagecolor="#ffffff"
     bordercolor="#666666"
     borderopacity="1"
     objecttolerance="10"
     gridtolerance="10"
     guidetolerance="10"
     inkscape:pageopacity="0"
     inkscape:pageshadow="2"
     inkscape:window-width="1280"
     inkscape:window-height="745"
     id="namedview853"
     showgrid="false"
     inkscape:zoom="28.9"
     inkscape:cx="10"
     inkscape:cy="10"
     inkscape:window-x="78"
     inkscape:window-y="-8"
     inkscape:window-maximized="1"
     inkscape:current-layer="svg851" />
  <rect
     x="0.5"
     y="0.5"
     width="19"
     height="19"
     rx="1.5"
     stroke="#2196F3"
     id="rect849" />
  <path
     style="opacity:1;fill:#ffffff;stroke:#255a9b;stroke-width:0.0692042;stroke-linecap:round;stroke-linejoin:round;fill-opacity:0"
     d="M 1.79012,18.959072 C 1.4659301,18.882243 1.2030098,18.655892 1.0862064,18.353065 1.022677,18.188358 1.0207612,17.94384 1.0207612,10 c 0,-7.9656594 0.00175,-8.1879402 0.065944,-8.354372 C 1.1741119,1.418999 1.3785477,1.2031746 1.6011401,1.1025353 L 1.7820069,1.0207612 H 10 18.217993 l 0.180867,0.081774 c 0.222592,0.1006393 0.427028,0.3164637 0.514435,0.5430927 0.06419,0.1664318 0.06594,0.3887126 0.06594,8.354372 0,7.9656601 -0.0018,8.1879401 -0.06594,8.3543721 -0.08741,0.226629 -0.291843,0.442453 -0.514435,0.543093 l -0.180867,0.08177 -8.148789,0.0054 c -4.6781504,0.0031 -8.2042826,-0.0078 -8.279084,-0.02552 z"
     id="path1420" />
</svg>
